<?xml version="1.0" encoding="utf-8"?>
<!-- Generator: Adobe Illustrator 26.5.0, SVG Export Plug-In . SVG Version: 6.00 Build 0)  -->
<svg version="1.1" baseProfile="tiny" xmlns="http://www.w3.org/2000/svg" xmlns:xlink="http://www.w3.org/1999/xlink" x="0px"
	 y="0px" viewBox="0 0 326 360" overflow="visible" xml:space="preserve">
<g id="lines">
	<g id="paper-rock">
		
			<line fill="none" stroke="#FF7733" stroke-width="4" stroke-linecap="round" stroke-miterlimit="10" x1="249.7" y1="123.4" x2="203.7" y2="89.9"/>
		<g>
			<polygon fill="#FF7733" points="219.9,85.6 220.3,88.8 204.7,90.7 207.7,106.1 204.5,106.8 200.9,87.9 			"/>
		</g>
	</g>
	<g id="spock-rock">
		
			<line fill="none" stroke="#FF7733" stroke-width="4" stroke-linecap="round" stroke-miterlimit="10" x1="75.8" y1="123.7" x2="119.7" y2="91.9"/>
		<g>
			<polygon fill="#FF7733" points="118.8,108.7 115.7,108.1 118.7,92.6 103,90.7 103.4,87.5 122.5,89.8 			"/>
		</g>
	</g>
	<g id="scisors-lizard">
		
			<line fill="none" stroke="#FF7733" stroke-width="4" stroke-linecap="round" stroke-miterlimit="10" x1="193.7" y1="297.4" x2="136.8" y2="297.4"/>
		<g>
			<polygon fill="#FF7733" points="147.4,284.3 149.6,286.6 138,297.4 149.6,308.1 147.4,310.4 133.3,297.4 			"/>
		</g>
	</g>
	<g id="rock-scosors">
		
			<line fill="none" stroke="#FF7733" stroke-width="4" stroke-linecap="round" stroke-miterlimit="10" x1="176.2" y1="105.3" x2="222.2" y2="250.5"/>
		<g>
			<polygon fill="#FF7733" points="206.5,244.4 208.1,241.6 221.8,249.4 228.5,235.1 231.4,236.5 223.2,253.8 			"/>
		</g>
	</g>
	<g id="rock-lizard">
		
			<line fill="none" stroke="#FF7733" stroke-width="4" stroke-linecap="round" stroke-miterlimit="10" x1="147.9" y1="104.7" x2="100.2" y2="249"/>
		<g>
			<polygon fill="#FF7733" points="91.1,234.8 94.1,233.5 100.6,247.8 114.5,240.2 116,243 99.2,252.3 			"/>
		</g>
	</g>
	<g id="paper-spock">
		
			<line fill="none" stroke="#FF7733" stroke-width="4" stroke-linecap="round" stroke-miterlimit="10" x1="240.8" y1="140.1" x2="88" y2="140.6"/>
		<g>
			<polygon fill="#FF7733" points="98.6,127.5 100.8,129.8 89.3,140.6 100.8,151.3 98.7,153.7 84.6,140.6 			"/>
		</g>
	</g>
	<g id="lizard-paper">
		
			<line fill="none" stroke="#FF7733" stroke-width="4" stroke-linecap="round" stroke-miterlimit="10" x1="123.6" y1="268.8" x2="246.6" y2="179.9"/>
		<g>
			<polygon fill="#FF7733" points="245.7,196.8 242.5,196.1 245.6,180.7 229.9,178.7 230.3,175.6 249.4,177.9 			"/>
		</g>
	</g>
	<g id="scisors-paper">
		
			<line fill="none" stroke="#FF7733" stroke-width="4" stroke-linecap="round" stroke-miterlimit="10" x1="254.5" y1="252.7" x2="272" y2="198.7"/>
		<g>
			<polygon fill="#FF7733" points="281.2,212.8 278.3,214.2 271.7,199.8 257.9,207.5 256.3,204.7 273.1,195.4 			"/>
		</g>
	</g>
	<g id="lizard-spock">
		
			<line fill="none" stroke="#FF7733" stroke-width="4" stroke-linecap="round" stroke-miterlimit="10" x1="71.6" y1="253" x2="53.9" y2="198.5"/>
		<g>
			<polygon fill="#FF7733" points="69.6,204.6 68.1,207.4 54.3,199.7 47.6,214 44.7,212.7 52.8,195.2 			"/>
		</g>
	</g>
	<g id="spock-scisors">
		
			<line fill="none" stroke="#FF7733" stroke-width="4" stroke-linecap="round" stroke-miterlimit="10" x1="76.3" y1="178.2" x2="199.9" y2="267.7"/>
		<g>
			<polygon fill="#FF7733" points="183.6,272.1 183.2,268.9 198.9,267 195.8,251.5 198.9,250.9 202.7,269.8 			"/>
		</g>
	</g>
</g>
<g id="icons">
	<g id="paper-group">
		<g id="paper-icon">
			<circle id="circle_4_" fill="none" stroke="#000000" stroke-width="4" stroke-miterlimit="10" cx="287.6" cy="150.9" r="36"/>
			<path id="paper-hand" d="M301,155.5c0,1.1-0.1,2.1-0.4,3.2l-2.5,10.8h-18.4l-10.5-14.7c-1.3-1.8,1.4-3.9,2.7-2.1l2.5,3.5
				c0.8,1.1,2.6,0.6,2.6-0.8v-18.8c0-2.3,3.3-2.3,3.3,0.1v14c0,0.8,0.7,1.5,1.5,1.5h0.6c0.8,0,1.5-0.7,1.5-1.5v-17.2
				c0-2.3,3.3-2.3,3.3,0.1v17.1c0,0.8,0.7,1.5,1.5,1.5h0.6c0.8,0,1.5-0.7,1.5-1.5v-14.1c0-2.3,3.3-2.3,3.3,0.1v14
				c0,0.8,0.7,1.5,1.5,1.5h0.6c0.8,0,1.5-0.7,1.5-1.5v-6.9c0-2.4,3.3-2.3,3.3-0.1L301,155.5L301,155.5z M298.5,137.5v-1
				c0-4-3.7-7-7.6-6c-2.3-4.5-8.6-4.3-10.7,0.1c-3.8-1-7.5,1.9-7.5,5.9V148c-1.8-0.7-3.9-0.5-5.7,0.8c-2.7,2-3.3,5.8-1.3,8.5
				l10.9,15.3c0.3,0.4,0.6,0.7,1,0.9s0.9,0.3,1.3,0.3h20.3c1.4,0,2.5-0.9,2.8-2.3l2.7-11.9c0.3-1.4,0.5-2.8,0.5-4.2v-12
				C305.4,139.9,302.1,137,298.5,137.5z"/>
		</g>
		<text transform="matrix(1 0 0 1 266.5946 103.9062)" font-family="'Inter Tight', sans-serif" font-size="16px">PAPER</text>
	</g>
	<g id="scisors-group">
		<g id="scisors-icon">
			<circle id="circle_3_" fill="none" stroke="#000000" stroke-width="4" stroke-miterlimit="10" cx="240.5" cy="297.4" r="36"/>
			<path id="scisors-gand" d="M237.7,312.9c-2.2,0-2.2-3.2,0-3.2c0.8,0,1.4-0.6,1.4-1.4v-0.6c0-0.8-0.6-1.4-1.4-1.4h-2.5
				c-2.2,0-2.2-3.2,0-3.2h2.5c0.8,0,1.4-0.6,1.4-1.4V301c0-0.8-0.6-1.4-1.4-1.4h-16c-3,0-3-4.4,0-4.4h16c0.8,0,1.4-0.6,1.4-1.4v-1
				c0-0.3-0.1-0.6-0.2-0.8c-0.2-0.2-0.4-0.4-0.7-0.5l-13.7-5.3c-2.8-1.1-1.2-5.2,1.7-4.1l14.7,5.6c0.3,0.1,0.6,0.1,0.9,0
				c0.3-0.1,0.5-0.2,0.7-0.5l1.9-2.3c0.5-0.6,1.4-0.8,2.2-0.4l8.6,4.8c0.5,0.3,0.8,0.8,0.8,1.4v18.1c0,0.7-0.5,1.4-1.3,1.6
				l-10.5,2.4c-0.1,0-0.3,0-0.4,0L237.7,312.9L237.7,312.9z M237.7,317.1l6.2,0c0.5,0,0.9-0.1,1.3-0.2l10.5-2.4
				c2.7-0.6,4.6-3,4.6-5.7v-18.1c0-2.1-1.1-4-3-5.1l-8.6-4.8c-3-1.7-5.9-0.5-8.1,2.2l-12.8-4.9c-3.3-1.3-7.1,0.3-8.4,3.6
				c-1.3,3.3,0.3,7.1,3.7,8.4l6.9,1.6l-8.3-0.8c-3.6,0-6.5,2.9-6.5,6.4c0,3.6,2.9,6.4,6.5,6.4h7.7c-0.3,2.3,0.8,4.5,2.7,5.7
				C230.9,313.3,233.7,317.1,237.7,317.1z"/>
		</g>
		<text id="scisors-word" transform="matrix(1 0 0 1 212.2567 355.7956)" font-family="'Inter Tight', sans-serif" font-size="16px">SCISORS</text>
	</g>
	<g id="lizard-group">
		<g id="lizard-icon">
			<circle id="circle_2_" fill="none" stroke="#000000" stroke-width="4" stroke-miterlimit="10" cx="86.5" cy="297.4" r="36"/>
			<path id="lizard-hand" d="M103.3,311.1h-10v-1.8c0-1.6-0.9-2.9-2.4-3.5l-7.8-3c-0.7-0.3-1.3-0.4-2-0.4H70.8
				c-0.3,0-0.6-0.3-0.6-0.6c0-1.7,1.4-3.1,3.1-3.1h8.9c1.5,0,3-1,3.5-2.4l1.9-5c0.7-1.8-0.7-3.8-2.6-3.8H68.3
				c-1.4,0-2.5-1.1-2.5-2.5v-0.6c0-0.3,0.3-0.6,0.6-0.6h23c0.6,0,1.2,0.3,1.6,0.9l11.5,17.7c0.6,0.9,0.9,2,0.9,3.1V311.1z
				 M105.6,300.1l-11.5-17.7c-1-1.6-2.8-2.6-4.7-2.6h-23c-2.4,0-4.4,2-4.4,4.4v0.6c0,3.5,2.8,6.3,6.3,6.3h15.3l-1.4,3.8h-8.9
				c-3.8,0-6.9,3.1-6.9,6.9c0,2.4,2,4.4,4.4,4.4h10.3c0.2,0,0.5,0,0.7,0.1l7.8,3v5.6h17.5v-9.7C107.1,303.4,106.6,301.6,105.6,300.1
				z"/>
		</g>
		<text id="lizard-word" transform="matrix(1 0 0 1 60.5743 355.7956)" font-family="'Inter Tight', sans-serif" font-size="16px">LIZARD</text>
	</g>
	<g id="spock-group">
		<g id="spock-icon">
			<circle id="circle_1_" fill="none" stroke="#000000" stroke-width="4" stroke-miterlimit="10" cx="38.4" cy="150.7" r="36"/>
			<path id="spock-hand" d="M56.7,141.1l-5.1,21.3c-0.4,1.5-1.2,2.9-2.5,3.9c-1.2,1-2.8,1.5-4.4,1.5h-9.5c-2.4,0-4.7-0.9-6.4-2.6
				l-8-7.6c-2.2-2.1,0.9-5.4,3.1-3.3l4.5,4.2c0.5,0.4,1.2,0.1,1.2-0.5c0-2.1-0.3-4.2-0.9-6.2l-3.2-10.7c-0.9-2.9,3.5-4.2,4.3-1.3
				l2.8,9.3c0.5,1.7,3,0.9,2.6-0.7L31.5,134c-0.7-2.9,3.6-4,4.4-1.1l4.2,16.2c0.4,1.5,2.6,1.5,2.9-0.1l2.8-13.6
				c0.6-2.9,5.1-2.1,4.4,1.1l-2.5,12.3c-0.3,1.6,2.1,2.2,2.5,0.5l2.2-9.2C53,137.1,57.4,138.2,56.7,141.1z M60,137.2
				c-1.7-2.8-4.5-3.1-5.8-3.1c-1.2-4.5-5.5-4.8-6.2-4.8c-1.5,0-2.9,0.5-4.1,1.5c-1.2,0.9-2,2.3-2.3,3.7l-0.4,2l-1.2-4.7
				c-0.8-3.1-4.1-5.6-7.9-4.7c-1.5,0.4-2.8,1.3-3.7,2.6c-0.9,1.3-1.3,2.8-1.1,4.4c-1,0.1-1.9,0.4-2.7,0.8s-1.6,1.1-2.1,1.9
				c-0.5,0.8-0.9,1.7-1.1,2.7c-0.2,1-0.1,1.9,0.2,2.9l2.1,7.2c-3.4-0.7-5.5,1.4-6,1.9c-0.6,0.6-1,1.4-1.3,2.1
				c-0.3,0.8-0.4,1.6-0.4,2.5c0,0.9,0.2,1.7,0.6,2.5c0.4,0.8,0.9,1.5,1.5,2.1l8,7.6c2.5,2.4,5.9,3.7,9.3,3.7h9.5c2.5,0,5-0.8,7-2.4
				c2-1.6,3.4-3.8,4-6.2l5.1-21.3c0.2-0.8,0.2-1.7,0.1-2.5C60.7,138.7,60.4,137.9,60,137.2z"/>
		</g>
		<text id="spock-word" transform="matrix(1 0 0 1 17.0203 103.9064)" font-family="'Inter Tight', sans-serif" font-size="16px">SPOCK</text>
	</g>
	<g id="rock-group">
		<g id="rock-icon">
			<circle id="circle" fill="none" stroke="#000000" stroke-width="4" stroke-miterlimit="10" cx="163" cy="60.4" r="36"/>
			<path id="rock-hand" d="M181.3,60.9c0,0.8-0.2,1.5-0.5,2.3l-3.8,8.8c-0.5,1.1-0.7,2.2-0.7,3.4v0.6H157V75c0-1.4-0.6-2.8-1.7-3.8
				l-8.6-7.5c-1.3-1.1-2-2.7-2-4.4v-5c0-2.9,4.6-3,4.6,0.1V58c0,0.2,0,0.4,0.1,0.6c0.1,0.2,0.2,0.3,0.4,0.5l0.6,0.5
				c0.2,0.2,0.5,0.3,0.7,0.3c0.3,0,0.5,0,0.8-0.1c0.2-0.1,0.5-0.3,0.6-0.5c0.1-0.2,0.2-0.5,0.2-0.8V48.3c0-2.9,4.6-3,4.6,0.1v2.4
				c0,0.8,0.6,1.4,1.4,1.4h0.6c0.8,0,1.4-0.6,1.4-1.4v-3.6c0-2.9,4.6-3,4.6,0.1v3.6c0,0.8,0.6,1.4,1.4,1.4h0.6
				c0.8,0,1.4-0.6,1.4-1.4v-2.4c0-2.9,4.6-3,4.6,0.1v2.4c0,0.8,0.6,1.4,1.4,1.4h0.6c0.8,0,1.4-0.6,1.4-1.4c0-2.9,4.6-3,4.6,0.1V60.9
				z M176.5,44.8c-2-3-5.8-3.7-8.7-2.1c-2.6-2.8-7-2.7-9.5,0c-4.2-2.4-9.6,0.4-9.7,5.4c-4.1-1-8,2.1-8,6.3v5c0,2.9,1.3,5.6,3.4,7.5
				l8.6,7.5c0.4,0.3,0.3,0.5,0.3,2.9c0,1.6,1.3,2.8,2.8,2.8h22.2c1.6,0,2.8-1.3,2.8-2.8c0-2.1-0.1-2.7,0.4-3.7l3.8-8.8
				c0.5-1.2,0.8-2.6,0.8-3.9V50.8C185.5,46.1,180.8,43,176.5,44.8z"/>
		</g>
		<text transform="matrix(1 0 0 1 144.1767 13.5965)" font-family="'Inter Tight', sans-serif" font-size="16px">ROCK</text>
	</g>
</g>
</svg>
